# xmcd
#
# Track frame offsets: 
#        150
#        15791
#        32784
#        52189
#        66360
#        82928
#        105048
#        125122
#        141773
#
# Disc length: 2105 seconds
#
# Revision: 2
# Processed by: cddbd v1.5.2PL0 Copyright (c) Steve Scherf et al.
# Submitted via: ExactAudioCopy v0.99pb5
#
DISCID=6e083709
DTITLE=Orquesta Ceiba - Cinco Colones
DYEAR=2009
DGENRE=Salsa
TTITLE0=El Bailador
TTITLE1=Costa Rica
TTITLE2=Ceiba Llegó
TTITLE3=Bancarrota
TTITLE4=Isla De Belleza
TTITLE5=Fruta Bamba
TTITLE6=Abuelita
TTITLE7=Cinco Colones
TTITLE8=Descarga Callejera
EXTD=YEAR: 2009
EXTT0=
EXTT1=
EXTT2=
EXTT3=
EXTT4=
EXTT5=
EXTT6=
EXTT7=
EXTT8=
PLAYORDER=
